<svg id="visual" viewBox="0 0 1920 1080" width="1920" height="1080" xmlns="http://www.w3.org/2000/svg" xmlns:xlink="http://www.w3.org/1999/xlink" version="1.1">
    <path d="M1385 1080L1399.5 1054.3C1414 1028.7 1443 977.3 1459 925.8C1475 874.3 1478 822.7 1473.8 771.2C1469.7 719.7 1458.3 668.3 1434.7 617C1411 565.7 1375 514.3 1354 463C1333 411.7 1327 360.3 1340.8 308.8C1354.7 257.3 1388.3 205.7 1409.2 154.2C1430 102.7 1438 51.3 1442 25.7L1446 0L1920 0L1920 25.7C1920 51.3 1920 102.7 1920 154.2C1920 205.7 1920 257.3 1920 308.8C1920 360.3 1920 411.7 1920 463C1920 514.3 1920 565.7 1920 617C1920 668.3 1920 719.7 1920 771.2C1920 822.7 1920 874.3 1920 925.8C1920 977.3 1920 1028.7 1920 1054.3L1920 1080Z" fill="#F7770F" stroke-linecap="round" stroke-linejoin="miter"></path>
</svg>